<svg width="32" height="32" viewBox="0 0 32 32" fill="none" xmlns="http://www.w3.org/2000/svg">
<rect width="32" height="32" rx="16" fill="#94A3B8"/>
<g clip-path="url(#clip0_6029_10043)">
<path d="M21.8 9H9.78894C8.22714 9 7 10.2643 7 11.7889V18.408C7 19.9327 8.22714 21.197 9.78894 21.197H13.9166L15.3296 23.5025C15.3296 23.5025 15.3296 23.5397 15.3668 23.5769C15.4412 23.7256 15.5899 23.8 15.7759 23.8C15.9618 23.8 16.1106 23.6884 16.1849 23.5769C16.2221 23.5397 16.2221 23.5025 16.2221 23.5025L17.6352 21.197H21.7628C23.2874 21.197 24.5518 19.9327 24.5518 18.408V11.7889C24.5889 10.2643 23.3246 9 21.8 9Z" fill="white"/>
<path d="M10.9065 13.8346C10.9065 13.8346 10.4231 13.8346 9.97683 14.2437V12.5703H8.89844V17.0698H9.97683V16.7351C9.97683 16.7351 10.2371 17.1814 10.8693 17.1814C10.8693 17.1814 12.3939 17.107 12.3939 15.508C12.4311 15.4708 12.3567 13.8346 10.9065 13.8346ZM10.6834 16.2145C10.3115 16.2145 9.97683 15.917 9.97683 15.508C9.97683 15.1361 10.2743 14.8015 10.6834 14.8015C11.0552 14.8015 11.3899 15.099 11.3899 15.508C11.3527 15.917 11.0552 16.2145 10.6834 16.2145Z" fill="#94A3B8"/>
<path d="M12.7656 12.458V13.4992C12.7656 13.4992 13.249 13.462 13.249 14.3917V17.0319H14.2902V14.1314C14.2902 14.1314 14.3274 12.458 12.7656 12.458Z" fill="#94A3B8"/>
<path d="M16.8166 13.8711C16.8166 13.8711 15.0317 13.8711 15.0317 15.5445C15.0317 15.5445 14.9573 17.1806 16.8166 17.1806C16.8166 17.1806 18.6387 17.1806 18.6387 15.5445C18.6387 15.5073 18.7131 13.8711 16.8166 13.8711ZM16.8166 16.2138C16.4447 16.2138 16.11 15.9163 16.11 15.5073C16.11 15.1354 16.4075 14.8007 16.8166 14.8007C17.1884 14.8007 17.5231 15.0982 17.5231 15.5073C17.5231 15.9163 17.2256 16.2138 16.8166 16.2138Z" fill="#94A3B8"/>
<path d="M21.6124 13.9831V14.2806C21.6124 14.2806 21.3149 13.8716 20.7199 13.8716C20.7199 13.8716 19.1953 13.7972 19.1953 15.5078C19.1953 15.5078 19.1953 17.1067 20.6827 17.1067C20.6827 17.1067 21.2777 17.1439 21.6124 16.6977V16.958C21.6124 16.958 21.6868 17.7389 20.9431 17.7389H20.6827V18.7057H21.0918C21.0918 18.7057 22.6536 18.7057 22.6536 17.0324V13.9831H21.6124ZM20.9802 16.2143C20.6084 16.2143 20.2737 15.9168 20.2737 15.5078C20.2737 15.1359 20.5712 14.8012 20.9802 14.8012C21.3521 14.8012 21.6868 15.0987 21.6868 15.5078C21.6868 15.9168 21.3521 16.2143 20.9802 16.2143Z" fill="#94A3B8"/>
</g>
<defs>
<clipPath id="clip0_6029_10043">
<rect width="17.5889" height="14.8" fill="white" transform="translate(7 9)"/>
</clipPath>
</defs>
</svg>
