<svg width="15" height="15" viewBox="0 0 15 15" fill="none" xmlns="http://www.w3.org/2000/svg">
<path d="M4.85495 6.56515C4.85495 6.24498 5.11449 5.98544 5.43466 5.98544H8.91291C9.23307 5.98544 9.49262 6.24498 9.49262 6.56515C9.49262 6.88531 9.23307 7.14486 8.91291 7.14486H5.43466C5.11449 7.14486 4.85495 6.88531 4.85495 6.56515ZM5.43466 8.30427C5.11449 8.30427 4.85495 8.56382 4.85495 8.88398C4.85495 9.20415 5.11449 9.46369 5.43466 9.46369H7.75349C8.07366 9.46369 8.3332 9.20415 8.3332 8.88398C8.3332 8.56382 8.07366 8.30427 7.75349 8.30427H5.43466ZM0.217301 7.72457C0.217301 3.8826 3.33183 0.768066 7.1738 0.768066C11.0158 0.768066 14.1303 3.8826 14.1303 7.72457C14.1303 11.5665 11.0158 14.6811 7.1738 14.6811C5.90583 14.6811 4.71569 14.3413 3.69111 13.7477L0.980329 14.6513C0.776317 14.7193 0.551424 14.6688 0.396095 14.5201C0.240767 14.3714 0.180528 14.1489 0.239606 13.9421L1.06465 11.0544C0.524304 10.065 0.217301 8.92986 0.217301 7.72457ZM7.1738 1.92748C3.97216 1.92748 1.37672 4.52292 1.37672 7.72457C1.37672 8.8064 1.67251 9.81738 2.18728 10.683C2.26889 10.8202 2.29029 10.985 2.24643 11.1386L1.65635 13.2038L3.57887 12.563C3.74422 12.5079 3.92559 12.5301 4.07276 12.6235C4.9692 13.1922 6.03214 13.5216 7.1738 13.5216C10.3754 13.5216 12.9709 10.9262 12.9709 7.72457C12.9709 4.52292 10.3754 1.92748 7.1738 1.92748Z" fill="#64748B"/>
</svg>
