<svg width="318" height="132" viewBox="0 0 318 132" fill="none" xmlns="http://www.w3.org/2000/svg">
<rect width="94.431" height="63.7824" transform="translate(8.48047 7.77353)" fill="#E6E5E6"/>
<path d="M51.023 30.9679L65.2988 54.9898H34.5508L51.023 30.9679Z" fill="#D9D9D9"/>
<path d="M66.1198 36.7325L76.8267 54.9892H53.7656L66.1198 36.7325Z" fill="#D9D9D9"/>
<circle cx="73.9188" cy="30.9668" r="3.31337" fill="#D9D9D9"/>
<rect x="8.48047" y="81.496" width="70.4091" height="4.97005" fill="#D9D9D9"/>
<rect x="8.48047" y="90.6077" width="45.5588" height="4.97005" fill="#D9D9D9" fill-opacity="0.5"/>
<rect width="94.431" height="63.7824" transform="translate(112.016 7.77344)" fill="#E6E5E6"/>
<path d="M154.558 30.9678L168.834 54.9897H138.086L154.558 30.9678Z" fill="#D9D9D9"/>
<path d="M169.655 36.7324L180.362 54.9891H157.301L169.655 36.7324Z" fill="#D9D9D9"/>
<circle cx="177.45" cy="30.9667" r="3.31337" fill="#D9D9D9"/>
<rect x="112.016" y="81.4959" width="70.4091" height="4.97005" fill="#D9D9D9"/>
<rect x="112.016" y="90.6076" width="45.5588" height="4.97005" fill="#D9D9D9" fill-opacity="0.5"/>
<rect width="94.431" height="63.7824" transform="translate(215.57 7.77344)" fill="#E6E5E6"/>
<path d="M258.121 30.9678L272.396 54.9897H241.648L258.121 30.9678Z" fill="#D9D9D9"/>
<path d="M273.217 36.7324L283.924 54.9891H260.863L273.217 36.7324Z" fill="#D9D9D9"/>
<circle cx="281.013" cy="30.9667" r="3.31337" fill="#D9D9D9"/>
<rect x="215.57" y="81.4959" width="70.4091" height="4.97005" fill="#D9D9D9"/>
<rect x="215.57" y="90.6076" width="45.5588" height="4.97005" fill="#D9D9D9" fill-opacity="0.5"/>
</svg>
