<svg width="304" height="133" viewBox="0 0 304 133" fill="none" xmlns="http://www.w3.org/2000/svg">
<rect width="139.21" height="94.3798" transform="translate(8.47656 8.16211)" fill="#E6E5E6"/>
<path d="M71.2012 42.3545L92.2467 77.7676H46.918L71.2012 42.3545Z" fill="#D9D9D9"/>
<path d="M93.4585 50.8535L109.243 77.7675H75.2461L93.4585 50.8535Z" fill="#D9D9D9"/>
<circle cx="104.951" cy="42.3533" r="4.88457" fill="#D9D9D9"/>
<rect width="65.2793" height="43.2574" transform="translate(156.336 8.16211)" fill="#E6E5E6"/>
<path d="M185.079 23.834L194.725 40.065H173.949L185.079 23.834Z" fill="#D9D9D9"/>
<path d="M195.281 27.7295L202.515 40.0651H186.934L195.281 27.7295Z" fill="#D9D9D9"/>
<circle cx="200.555" cy="23.8335" r="2.23876" fill="#D9D9D9"/>
<rect width="65.2793" height="43.2574" transform="translate(230.27 8.16211)" fill="#E6E5E6"/>
<path d="M259.017 23.834L268.662 40.065H247.887L259.017 23.834Z" fill="#D9D9D9"/>
<path d="M269.218 27.7295L276.453 40.0651H260.871L269.218 27.7295Z" fill="#D9D9D9"/>
<circle cx="274.493" cy="23.8335" r="2.23876" fill="#D9D9D9"/>
<rect width="65.2793" height="43.2574" transform="translate(156.336 59.2842)" fill="#E6E5E6"/>
<path d="M185.079 74.9561L194.725 91.1871H173.949L185.079 74.9561Z" fill="#D9D9D9"/>
<path d="M195.281 78.8516L202.515 91.1871H186.934L195.281 78.8516Z" fill="#D9D9D9"/>
<circle cx="200.555" cy="74.9556" r="2.23876" fill="#D9D9D9"/>
<rect width="65.2793" height="43.2574" transform="translate(230.27 59.2852)" fill="#E6E5E6"/>
<path d="M259.017 74.957L268.662 91.188H247.887L259.017 74.957Z" fill="#D9D9D9"/>
<path d="M269.218 78.8525L276.453 91.1881H260.871L269.218 78.8525Z" fill="#D9D9D9"/>
<circle cx="274.493" cy="74.9565" r="2.23876" fill="#D9D9D9"/>
<rect x="8.47656" y="8.16211" width="139.21" height="94.3798" fill="black" fill-opacity="0.25"/>
<rect x="21.8438" y="77.374" width="66.8523" height="4.71899" fill="#F8F8F8"/>
<rect x="21.8438" y="86.8125" width="51.9089" height="4.71899" fill="#F8F8F8"/>
</svg>
