<svg width="273" height="133" viewBox="0 0 273 133" fill="none" xmlns="http://www.w3.org/2000/svg">
<rect width="80.5616" height="54.4144" transform="translate(7.77344 8.29883)" fill="#E6E5E6"/>
<path d="M44.0724 28.0859L56.2515 48.5797H30.0195L44.0724 28.0859Z" fill="#D9D9D9"/>
<path d="M56.9498 33.0049L66.0841 48.5801H46.4102L56.9498 33.0049Z" fill="#D9D9D9"/>
<circle cx="63.6041" cy="28.0855" r="2.82672" fill="#D9D9D9"/>
<rect x="7.77344" y="8.29883" width="80.5616" height="54.4144" fill="black" fill-opacity="0.25"/>
<rect x="15.5469" y="44.3398" width="50.0573" height="3.53345" fill="#F8F8F8"/>
<rect x="15.5469" y="52.1133" width="38.868" height="3.53345" fill="#F8F8F8"/>
<rect width="80.5616" height="54.4144" transform="translate(96.1094 8.29883)" fill="#E6E5E6"/>
<path d="M132.412 28.0859L144.591 48.5797H118.359L132.412 28.0859Z" fill="#D9D9D9"/>
<path d="M145.29 33.0039L154.424 48.5791H134.75L145.29 33.0039Z" fill="#D9D9D9"/>
<circle cx="151.936" cy="28.0855" r="2.82672" fill="#D9D9D9"/>
<rect width="80.5616" height="54.4144" transform="translate(184.441 8.29883)" fill="#E6E5E6"/>
<path d="M220.748 28.0859L232.927 48.5797H206.695L220.748 28.0859Z" fill="#D9D9D9"/>
<path d="M233.626 33.0039L242.76 48.5791H223.086L233.626 33.0039Z" fill="#D9D9D9"/>
<circle cx="240.272" cy="28.0855" r="2.82672" fill="#D9D9D9"/>
<rect width="80.5616" height="54.4144" transform="translate(7.77344 70.4873)" fill="#E6E5E6"/>
<path d="M44.0724 90.2744L56.2515 110.768H30.0195L44.0724 90.2744Z" fill="#D9D9D9"/>
<path d="M56.9498 95.1934L66.0841 110.769H46.4102L56.9498 95.1934Z" fill="#D9D9D9"/>
<circle cx="63.6041" cy="90.274" r="2.82672" fill="#D9D9D9"/>
<rect width="80.5616" height="54.4144" transform="translate(96.1094 70.4873)" fill="#E6E5E6"/>
<path d="M132.412 90.2744L144.591 110.768H118.359L132.412 90.2744Z" fill="#D9D9D9"/>
<path d="M145.29 95.1924L154.424 110.768H134.75L145.29 95.1924Z" fill="#D9D9D9"/>
<circle cx="151.936" cy="90.274" r="2.82672" fill="#D9D9D9"/>
<rect width="80.5616" height="54.4144" transform="translate(184.441 70.4873)" fill="#E6E5E6"/>
<path d="M220.748 90.2744L232.927 110.768H206.695L220.748 90.2744Z" fill="#D9D9D9"/>
<path d="M233.626 95.1924L242.76 110.768H223.086L233.626 95.1924Z" fill="#D9D9D9"/>
<circle cx="240.272" cy="90.274" r="2.82672" fill="#D9D9D9"/>
</svg>
