<svg width="32" height="32" viewBox="0 0 32 32" fill="none" xmlns="http://www.w3.org/2000/svg">
<circle cx="16" cy="16" r="16" fill="#94A3B8"/>
<path d="M14.9436 7.05779C15.2426 6.83466 15.616 6.71289 16.001 6.71289C16.386 6.71289 16.7593 6.83466 17.0583 7.05779L23.4594 11.8283C23.7505 12.0451 23.9853 12.3189 24.1467 12.6298C24.3082 12.9407 24.3922 13.2808 24.3926 13.6253V20.6096C24.3926 21.0191 24.2158 21.4117 23.901 21.7013C23.5863 21.9908 23.1594 22.1535 22.7143 22.1535H20.1968C19.7517 22.1535 19.3248 21.9908 19.01 21.7013C18.6953 21.4117 18.5185 21.0191 18.5185 20.6096V16.75C18.5185 16.5453 18.4301 16.3489 18.2727 16.2042C18.1153 16.0594 17.9019 15.9781 17.6793 15.9781H14.3227C14.1001 15.9781 13.8867 16.0594 13.7293 16.2042C13.5719 16.3489 13.4835 16.5453 13.4835 16.75V20.6096C13.4835 21.0191 13.3067 21.4117 12.9919 21.7013C12.6772 21.9908 12.2503 22.1535 11.8052 22.1535H9.2877C8.84258 22.1535 8.41569 21.9908 8.10094 21.7013C7.7862 21.4117 7.60938 21.0191 7.60938 20.6096V13.6268C7.6093 13.2818 7.69305 12.9411 7.8545 12.6296C8.01595 12.3182 8.25102 12.0439 8.54252 11.8267L14.9436 7.05779Z" fill="white"/>
</svg>
