<svg width="37" height="37" viewBox="0 0 37 37" fill="none" xmlns="http://www.w3.org/2000/svg">
<path d="M11.6047 6.05029C8.53951 6.05029 6.05469 8.53511 6.05469 11.6003V22.7003C6.05469 23.8989 6.43467 25.0088 7.08074 25.9161L14.5384 18.4585C15.9833 17.0135 18.326 17.0135 19.7709 18.4585L27.2286 25.9161C27.8747 25.0089 28.2547 23.899 28.2547 22.7003V11.6003C28.2547 8.53511 25.7699 6.05029 22.7047 6.05029H11.6047ZM23.6297 12.5253C23.6297 13.547 22.8014 14.3753 21.7797 14.3753C20.758 14.3753 19.9297 13.547 19.9297 12.5253C19.9297 11.5036 20.758 10.6753 21.7797 10.6753C22.8014 10.6753 23.6297 11.5036 23.6297 12.5253ZM25.9204 27.2243L18.4628 19.7666C17.7403 19.0442 16.569 19.0442 15.8465 19.7666L8.38889 27.2242C9.29615 27.8703 10.406 28.2503 11.6047 28.2503H22.7047C23.9033 28.2503 25.0132 27.8703 25.9204 27.2243ZM11.1679 30.1003C12.1842 31.2358 13.661 31.9503 15.3047 31.9503H23.6297C28.2275 31.9503 31.9547 28.2231 31.9547 23.6253V15.3003C31.9547 13.6566 31.2402 12.1798 30.1047 11.1635V23.6253C30.1047 23.8488 30.0934 24.0697 30.0713 24.2874C29.7397 27.5524 26.9823 30.1003 23.6297 30.1003H11.1679Z" fill="#979797"/>
</svg>
