<svg width="13" height="11" viewBox="0 0 13 11" fill="none" xmlns="http://www.w3.org/2000/svg">
<path d="M12.9248 10.1828L7.01629 0.282832C6.80998 -0.0628516 6.30337 -0.0916587 6.047 0.196411L5.98371 0.282832L0.0752182 10.1828C-0.126741 10.5212 0.10029 10.9312 0.490669 10.9922L0.591514 11H12.4085C12.8242 11 13.0988 10.6161 12.9665 10.2687L12.9248 10.1828L7.01629 0.282832L12.9248 10.1828ZM6.5 1.68225L11.4045 9.9H1.59551L6.5 1.68225ZM6.5 7.56463C6.09348 7.56463 5.76393 7.8715 5.76393 8.25003C5.76393 8.62856 6.09348 8.93543 6.5 8.93543C6.90652 8.93543 7.23607 8.62856 7.23607 8.25003C7.23607 7.8715 6.90652 7.56463 6.5 7.56463ZM6.50045 4.40282C6.21048 4.40303 5.96947 4.59776 5.91967 4.85437L5.91024 4.95324L5.91114 6.05042C5.91139 6.35418 6.17604 6.60023 6.50226 6.6C6.79222 6.59979 7.03323 6.40506 7.08303 6.14845L7.09247 6.04958L7.09156 4.9524C7.09131 4.64864 6.82666 4.40259 6.50045 4.40282Z" fill="#94A3B8"/>
</svg>
