<svg width="222" height="29" viewBox="0 0 222 29" fill="none" xmlns="http://www.w3.org/2000/svg">
<g clip-path="url(#clip0_6220_11371)">
<g clip-path="url(#clip1_6220_11371)">
<path d="M47.256 20.182C46.528 20.182 45.856 20.0467 45.24 19.776C44.6333 19.5053 44.106 19.132 43.658 18.656L44.428 17.774C44.8013 18.166 45.2353 18.4787 45.73 18.712C46.2247 18.936 46.738 19.048 47.27 19.048C47.942 19.048 48.4693 18.894 48.852 18.586C49.2347 18.278 49.426 17.872 49.426 17.368C49.426 17.1067 49.3793 16.8873 49.286 16.71C49.202 16.5233 49.0807 16.3647 48.922 16.234C48.7727 16.1033 48.5953 15.9867 48.39 15.884C48.1847 15.772 47.9607 15.66 47.718 15.548L46.234 14.904C46.0007 14.8013 45.758 14.68 45.506 14.54C45.2633 14.3907 45.0393 14.2133 44.834 14.008C44.638 13.7933 44.4747 13.546 44.344 13.266C44.2133 12.9767 44.148 12.6453 44.148 12.272C44.148 11.88 44.2273 11.516 44.386 11.18C44.554 10.844 44.778 10.5547 45.058 10.312C45.3473 10.0693 45.688 9.88267 46.08 9.752C46.4813 9.612 46.9153 9.542 47.382 9.542C47.998 9.542 48.5627 9.65867 49.076 9.892C49.5987 10.116 50.042 10.424 50.406 10.816L49.72 11.642C49.4027 11.3433 49.0527 11.11 48.67 10.942C48.2873 10.7647 47.858 10.676 47.382 10.676C46.794 10.676 46.3273 10.8113 45.982 11.082C45.6367 11.3433 45.464 11.712 45.464 12.188C45.464 12.44 45.5153 12.6547 45.618 12.832C45.7207 13.0093 45.8513 13.1633 46.01 13.294C46.1687 13.4247 46.3507 13.5367 46.556 13.63C46.7613 13.7233 46.962 13.812 47.158 13.896L48.628 14.526C48.9267 14.6567 49.202 14.8013 49.454 14.96C49.7153 15.1187 49.9393 15.3053 50.126 15.52C50.322 15.7347 50.4713 15.9867 50.574 16.276C50.686 16.556 50.742 16.8873 50.742 17.27C50.742 17.6713 50.658 18.0493 50.49 18.404C50.3313 18.7587 50.1027 19.0713 49.804 19.342C49.5053 19.6033 49.1367 19.8087 48.698 19.958C48.2687 20.1073 47.788 20.182 47.256 20.182ZM55.9075 20.182C55.4035 20.182 54.9275 20.0933 54.4795 19.916C54.0408 19.7387 53.6582 19.482 53.3315 19.146C53.0048 18.8007 52.7435 18.3807 52.5475 17.886C52.3608 17.3913 52.2675 16.8313 52.2675 16.206C52.2675 15.59 52.3608 15.0347 52.5475 14.54C52.7435 14.0453 53.0002 13.6253 53.3175 13.28C53.6348 12.9347 53.9988 12.6687 54.4095 12.482C54.8295 12.2953 55.2588 12.202 55.6975 12.202C56.1828 12.202 56.6122 12.286 56.9855 12.454C57.3588 12.622 57.6715 12.8647 57.9235 13.182C58.1848 13.49 58.3808 13.8633 58.5115 14.302C58.6515 14.7407 58.7215 15.2307 58.7215 15.772C58.7215 15.912 58.7168 16.0473 58.7075 16.178C58.6982 16.2993 58.6842 16.4067 58.6655 16.5H53.5415C53.5882 17.3213 53.8355 17.97 54.2835 18.446C54.7408 18.922 55.3335 19.16 56.0615 19.16C56.4348 19.16 56.7755 19.1087 57.0835 19.006C57.3915 18.894 57.6855 18.7447 57.9655 18.558L58.4275 19.398C58.0915 19.6127 57.7182 19.7993 57.3075 19.958C56.9062 20.1073 56.4395 20.182 55.9075 20.182ZM57.6015 15.59C57.6015 14.7967 57.4335 14.204 57.0975 13.812C56.7708 13.42 56.3088 13.224 55.7115 13.224C55.4408 13.224 55.1795 13.28 54.9275 13.392C54.6848 13.4947 54.4655 13.6487 54.2695 13.854C54.0735 14.05 53.9102 14.2973 53.7795 14.596C53.6488 14.8853 53.5648 15.2167 53.5275 15.59H57.6015ZM62.3107 20.182C61.9934 20.182 61.6994 20.1307 61.4287 20.028C61.1581 19.9253 60.9247 19.7807 60.7287 19.594C60.5327 19.398 60.3787 19.1647 60.2667 18.894C60.1547 18.614 60.0987 18.3013 60.0987 17.956C60.0987 16.976 60.5001 16.276 61.3027 15.856C62.1147 15.4267 63.2721 15.2027 64.7747 15.184C64.7747 14.9413 64.7514 14.7033 64.7047 14.47C64.6581 14.2367 64.5741 14.0313 64.4527 13.854C64.3407 13.6767 64.1821 13.5367 63.9767 13.434C63.7714 13.322 63.5147 13.266 63.2067 13.266C62.7587 13.266 62.3294 13.3407 61.9187 13.49C61.5081 13.63 61.1534 13.8027 60.8547 14.008L60.3507 13.098C60.7054 12.874 61.1487 12.6687 61.6807 12.482C62.2221 12.2953 62.8007 12.202 63.4167 12.202C63.8834 12.202 64.2801 12.2767 64.6067 12.426C64.9427 12.5753 65.2134 12.79 65.4187 13.07C65.6334 13.3407 65.7921 13.6673 65.8947 14.05C65.9974 14.4327 66.0487 14.8573 66.0487 15.324V20H64.9987L64.8867 19.188H64.8447C64.4807 19.4867 64.0841 19.7293 63.6547 19.916C63.2347 20.0933 62.7867 20.182 62.3107 20.182ZM62.6747 19.16C63.0481 19.16 63.3981 19.0947 63.7247 18.964C64.0514 18.8333 64.4014 18.6047 64.7747 18.278V16.024C64.1027 16.0707 63.5427 16.1407 63.0947 16.234C62.6561 16.318 62.3061 16.4347 62.0447 16.584C61.7834 16.724 61.6014 16.9013 61.4987 17.116C61.3961 17.3213 61.3447 17.5733 61.3447 17.872C61.3447 18.32 61.4661 18.6467 61.7087 18.852C61.9607 19.0573 62.2827 19.16 62.6747 19.16ZM69.7271 12.398L69.8391 13.784H69.8811C70.1517 13.2987 70.4691 12.916 70.8331 12.636C71.2064 12.3467 71.6077 12.202 72.0371 12.202C72.2051 12.202 72.3497 12.216 72.4711 12.244C72.6017 12.2627 72.7277 12.3047 72.8491 12.37L72.6111 13.49C72.4804 13.4433 72.3637 13.4107 72.2611 13.392C72.1584 13.3733 72.0277 13.364 71.8691 13.364C71.7197 13.364 71.5564 13.3967 71.3791 13.462C71.2017 13.518 71.0291 13.616 70.8611 13.756C70.6931 13.8867 70.5297 14.064 70.3711 14.288C70.2124 14.512 70.0724 14.7873 69.9511 15.114V20H68.6771V12.398H69.7271ZM77.3008 20.182C76.7968 20.182 76.3255 20.0933 75.8868 19.916C75.4575 19.7387 75.0795 19.482 74.7528 19.146C74.4355 18.8007 74.1835 18.3807 73.9968 17.886C73.8195 17.3913 73.7308 16.8313 73.7308 16.206C73.7308 15.5713 73.8288 15.0067 74.0248 14.512C74.2301 14.0173 74.5008 13.5973 74.8368 13.252C75.1728 12.9067 75.5601 12.6453 75.9988 12.468C76.4468 12.2907 76.9135 12.202 77.3988 12.202C77.9028 12.202 78.3321 12.2907 78.6868 12.468C79.0415 12.6453 79.3541 12.8553 79.6248 13.098L78.9668 13.952C78.7428 13.7467 78.5095 13.5833 78.2668 13.462C78.0241 13.3313 77.7488 13.266 77.4408 13.266C77.0955 13.266 76.7781 13.336 76.4888 13.476C76.1995 13.616 75.9475 13.8167 75.7328 14.078C75.5275 14.3393 75.3641 14.652 75.2428 15.016C75.1215 15.3707 75.0608 15.7673 75.0608 16.206C75.0608 16.6447 75.1168 17.046 75.2288 17.41C75.3408 17.7647 75.4995 18.068 75.7048 18.32C75.9195 18.572 76.1715 18.768 76.4608 18.908C76.7501 19.048 77.0675 19.118 77.4128 19.118C77.7675 19.118 78.0941 19.048 78.3928 18.908C78.6915 18.7587 78.9621 18.5767 79.2048 18.362L79.7508 19.216C79.4148 19.524 79.0368 19.762 78.6168 19.93C78.1968 20.098 77.7581 20.182 77.3008 20.182ZM82.9018 8.856V11.908L82.8598 13.476C83.2145 13.1213 83.5925 12.8227 83.9938 12.58C84.3952 12.328 84.8572 12.202 85.3798 12.202C86.2012 12.202 86.7938 12.454 87.1578 12.958C87.5218 13.4527 87.7038 14.1947 87.7038 15.184V20H86.4298V15.352C86.4298 14.624 86.3132 14.106 86.0798 13.798C85.8558 13.4807 85.4918 13.322 84.9878 13.322C84.5958 13.322 84.2458 13.42 83.9378 13.616C83.6298 13.812 83.2845 14.1013 82.9018 14.484V20H81.6278V8.856H82.9018Z" fill="#64748B"/>
</g>
<g clip-path="url(#clip2_6220_11371)">
<g clip-path="url(#clip3_6220_11371)">
<g clip-path="url(#clip4_6220_11371)">
<path fill-rule="evenodd" clip-rule="evenodd" d="M29.4601 17.3185L33.7639 21.6223C33.9151 21.7737 34.0001 21.979 34 22.193C33.9999 22.407 33.9148 22.6122 33.7635 22.7635C33.6121 22.9147 33.4068 22.9997 33.1928 22.9996C32.9788 22.9995 32.7736 22.9144 32.6223 22.7631L28.3185 18.4593C27.0319 19.4558 25.4141 19.9247 23.794 19.7707C22.174 19.6167 20.6735 18.8513 19.5977 17.6302C18.522 16.4091 17.9518 14.8241 18.0032 13.1975C18.0546 11.571 18.7237 10.0251 19.8744 8.87443C21.0251 7.72372 22.571 7.0546 24.1975 7.0032C25.8241 6.95179 27.4091 7.52196 28.6302 8.59771C29.8513 9.67346 30.6167 11.174 30.7707 12.794C30.9247 14.4141 30.4558 16.0319 29.4593 17.3185H29.4601ZM24.4003 18.1993C25.6733 18.1993 26.8941 17.6936 27.7943 16.7934C28.6944 15.8933 29.2001 14.6725 29.2001 13.3995C29.2001 12.1265 28.6944 10.9057 27.7943 10.0055C26.8941 9.10541 25.6733 8.59972 24.4003 8.59972C23.1273 8.59972 21.9065 9.10541 21.0063 10.0055C20.1062 10.9057 19.6005 12.1265 19.6005 13.3995C19.6005 14.6725 20.1062 15.8933 21.0063 16.7934C21.9065 17.6936 23.1273 18.1993 24.4003 18.1993Z" fill="#64748B"/>
</g>
</g>
</g>
</g>
<rect x="0.25" y="0.25" width="221.5" height="28.5" rx="14.25" stroke="#94A3B8" stroke-width="0.5"/>
<defs>
<clipPath id="clip0_6220_11371">
<rect width="222" height="29" rx="14.5" fill="white"/>
</clipPath>
<clipPath id="clip1_6220_11371">
<rect width="191" height="25" fill="white" transform="translate(-7 8)"/>
</clipPath>
<clipPath id="clip2_6220_11371">
<rect width="15.9645" height="15.9998" fill="white" transform="translate(18 7)"/>
</clipPath>
<clipPath id="clip3_6220_11371">
<rect width="15.9645" height="15.9998" fill="white" transform="translate(18 7)"/>
</clipPath>
<clipPath id="clip4_6220_11371">
<rect width="15.9645" height="15.9998" fill="white" transform="translate(18 7)"/>
</clipPath>
</defs>
</svg>
