<svg width="222" height="41" viewBox="0 0 222 41" fill="none" xmlns="http://www.w3.org/2000/svg">
<g clip-path="url(#clip0_6220_11322)">
<g clip-path="url(#clip1_6220_11322)">
<path d="M54.256 25.182C53.528 25.182 52.856 25.0467 52.24 24.776C51.6333 24.5053 51.106 24.132 50.658 23.656L51.428 22.774C51.8013 23.166 52.2353 23.4787 52.73 23.712C53.2247 23.936 53.738 24.048 54.27 24.048C54.942 24.048 55.4693 23.894 55.852 23.586C56.2347 23.278 56.426 22.872 56.426 22.368C56.426 22.1067 56.3793 21.8873 56.286 21.71C56.202 21.5233 56.0807 21.3647 55.922 21.234C55.7727 21.1033 55.5953 20.9867 55.39 20.884C55.1847 20.772 54.9607 20.66 54.718 20.548L53.234 19.904C53.0007 19.8013 52.758 19.68 52.506 19.54C52.2633 19.3907 52.0393 19.2133 51.834 19.008C51.638 18.7933 51.4747 18.546 51.344 18.266C51.2133 17.9767 51.148 17.6453 51.148 17.272C51.148 16.88 51.2273 16.516 51.386 16.18C51.554 15.844 51.778 15.5547 52.058 15.312C52.3473 15.0693 52.688 14.8827 53.08 14.752C53.4813 14.612 53.9153 14.542 54.382 14.542C54.998 14.542 55.5627 14.6587 56.076 14.892C56.5987 15.116 57.042 15.424 57.406 15.816L56.72 16.642C56.4027 16.3433 56.0527 16.11 55.67 15.942C55.2873 15.7647 54.858 15.676 54.382 15.676C53.794 15.676 53.3273 15.8113 52.982 16.082C52.6367 16.3433 52.464 16.712 52.464 17.188C52.464 17.44 52.5153 17.6547 52.618 17.832C52.7207 18.0093 52.8513 18.1633 53.01 18.294C53.1687 18.4247 53.3507 18.5367 53.556 18.63C53.7613 18.7233 53.962 18.812 54.158 18.896L55.628 19.526C55.9267 19.6567 56.202 19.8013 56.454 19.96C56.7153 20.1187 56.9393 20.3053 57.126 20.52C57.322 20.7347 57.4713 20.9867 57.574 21.276C57.686 21.556 57.742 21.8873 57.742 22.27C57.742 22.6713 57.658 23.0493 57.49 23.404C57.3313 23.7587 57.1027 24.0713 56.804 24.342C56.5053 24.6033 56.1367 24.8087 55.698 24.958C55.2687 25.1073 54.788 25.182 54.256 25.182ZM62.9075 25.182C62.4035 25.182 61.9275 25.0933 61.4795 24.916C61.0408 24.7387 60.6582 24.482 60.3315 24.146C60.0048 23.8007 59.7435 23.3807 59.5475 22.886C59.3608 22.3913 59.2675 21.8313 59.2675 21.206C59.2675 20.59 59.3608 20.0347 59.5475 19.54C59.7435 19.0453 60.0002 18.6253 60.3175 18.28C60.6348 17.9347 60.9988 17.6687 61.4095 17.482C61.8295 17.2953 62.2588 17.202 62.6975 17.202C63.1828 17.202 63.6122 17.286 63.9855 17.454C64.3588 17.622 64.6715 17.8647 64.9235 18.182C65.1848 18.49 65.3808 18.8633 65.5115 19.302C65.6515 19.7407 65.7215 20.2307 65.7215 20.772C65.7215 20.912 65.7168 21.0473 65.7075 21.178C65.6982 21.2993 65.6842 21.4067 65.6655 21.5H60.5415C60.5882 22.3213 60.8355 22.97 61.2835 23.446C61.7408 23.922 62.3335 24.16 63.0615 24.16C63.4348 24.16 63.7755 24.1087 64.0835 24.006C64.3915 23.894 64.6855 23.7447 64.9655 23.558L65.4275 24.398C65.0915 24.6127 64.7182 24.7993 64.3075 24.958C63.9062 25.1073 63.4395 25.182 62.9075 25.182ZM64.6015 20.59C64.6015 19.7967 64.4335 19.204 64.0975 18.812C63.7708 18.42 63.3088 18.224 62.7115 18.224C62.4408 18.224 62.1795 18.28 61.9275 18.392C61.6848 18.4947 61.4655 18.6487 61.2695 18.854C61.0735 19.05 60.9102 19.2973 60.7795 19.596C60.6488 19.8853 60.5648 20.2167 60.5275 20.59H64.6015ZM69.3107 25.182C68.9934 25.182 68.6994 25.1307 68.4287 25.028C68.1581 24.9253 67.9247 24.7807 67.7287 24.594C67.5327 24.398 67.3787 24.1647 67.2667 23.894C67.1547 23.614 67.0987 23.3013 67.0987 22.956C67.0987 21.976 67.5001 21.276 68.3027 20.856C69.1147 20.4267 70.2721 20.2027 71.7747 20.184C71.7747 19.9413 71.7514 19.7033 71.7047 19.47C71.6581 19.2367 71.5741 19.0313 71.4527 18.854C71.3407 18.6767 71.1821 18.5367 70.9767 18.434C70.7714 18.322 70.5147 18.266 70.2067 18.266C69.7587 18.266 69.3294 18.3407 68.9187 18.49C68.5081 18.63 68.1534 18.8027 67.8547 19.008L67.3507 18.098C67.7054 17.874 68.1487 17.6687 68.6807 17.482C69.2221 17.2953 69.8007 17.202 70.4167 17.202C70.8834 17.202 71.2801 17.2767 71.6067 17.426C71.9427 17.5753 72.2134 17.79 72.4187 18.07C72.6334 18.3407 72.7921 18.6673 72.8947 19.05C72.9974 19.4327 73.0487 19.8573 73.0487 20.324V25H71.9987L71.8867 24.188H71.8447C71.4807 24.4867 71.0841 24.7293 70.6547 24.916C70.2347 25.0933 69.7867 25.182 69.3107 25.182ZM69.6747 24.16C70.0481 24.16 70.3981 24.0947 70.7247 23.964C71.0514 23.8333 71.4014 23.6047 71.7747 23.278V21.024C71.1027 21.0707 70.5427 21.1407 70.0947 21.234C69.6561 21.318 69.3061 21.4347 69.0447 21.584C68.7834 21.724 68.6014 21.9013 68.4987 22.116C68.3961 22.3213 68.3447 22.5733 68.3447 22.872C68.3447 23.32 68.4661 23.6467 68.7087 23.852C68.9607 24.0573 69.2827 24.16 69.6747 24.16ZM76.7271 17.398L76.8391 18.784H76.8811C77.1517 18.2987 77.4691 17.916 77.8331 17.636C78.2064 17.3467 78.6077 17.202 79.0371 17.202C79.2051 17.202 79.3497 17.216 79.4711 17.244C79.6017 17.2627 79.7277 17.3047 79.8491 17.37L79.6111 18.49C79.4804 18.4433 79.3637 18.4107 79.2611 18.392C79.1584 18.3733 79.0277 18.364 78.8691 18.364C78.7197 18.364 78.5564 18.3967 78.3791 18.462C78.2017 18.518 78.0291 18.616 77.8611 18.756C77.6931 18.8867 77.5297 19.064 77.3711 19.288C77.2124 19.512 77.0724 19.7873 76.9511 20.114V25H75.6771V17.398H76.7271ZM84.3008 25.182C83.7968 25.182 83.3255 25.0933 82.8868 24.916C82.4575 24.7387 82.0795 24.482 81.7528 24.146C81.4355 23.8007 81.1835 23.3807 80.9968 22.886C80.8195 22.3913 80.7308 21.8313 80.7308 21.206C80.7308 20.5713 80.8288 20.0067 81.0248 19.512C81.2301 19.0173 81.5008 18.5973 81.8368 18.252C82.1728 17.9067 82.5601 17.6453 82.9988 17.468C83.4468 17.2907 83.9135 17.202 84.3988 17.202C84.9028 17.202 85.3321 17.2907 85.6868 17.468C86.0415 17.6453 86.3541 17.8553 86.6248 18.098L85.9668 18.952C85.7428 18.7467 85.5095 18.5833 85.2668 18.462C85.0241 18.3313 84.7488 18.266 84.4408 18.266C84.0955 18.266 83.7781 18.336 83.4888 18.476C83.1995 18.616 82.9475 18.8167 82.7328 19.078C82.5275 19.3393 82.3641 19.652 82.2428 20.016C82.1215 20.3707 82.0608 20.7673 82.0608 21.206C82.0608 21.6447 82.1168 22.046 82.2288 22.41C82.3408 22.7647 82.4995 23.068 82.7048 23.32C82.9195 23.572 83.1715 23.768 83.4608 23.908C83.7501 24.048 84.0675 24.118 84.4128 24.118C84.7675 24.118 85.0941 24.048 85.3928 23.908C85.6915 23.7587 85.9621 23.5767 86.2048 23.362L86.7508 24.216C86.4148 24.524 86.0368 24.762 85.6168 24.93C85.1968 25.098 84.7581 25.182 84.3008 25.182ZM89.9018 13.856V16.908L89.8598 18.476C90.2145 18.1213 90.5925 17.8227 90.9938 17.58C91.3952 17.328 91.8572 17.202 92.3798 17.202C93.2012 17.202 93.7938 17.454 94.1578 17.958C94.5218 18.4527 94.7038 19.1947 94.7038 20.184V25H93.4298V20.352C93.4298 19.624 93.3132 19.106 93.0798 18.798C92.8558 18.4807 92.4918 18.322 91.9878 18.322C91.5958 18.322 91.2458 18.42 90.9378 18.616C90.6298 18.812 90.2845 19.1013 89.9018 19.484V25H88.6278V13.856H89.9018Z" fill="#64748B"/>
</g>
<g clip-path="url(#clip2_6220_11322)">
<g clip-path="url(#clip3_6220_11322)">
<g clip-path="url(#clip4_6220_11322)">
<path fill-rule="evenodd" clip-rule="evenodd" d="M36.3976 23.3185L40.7014 27.6223C40.8526 27.7737 40.9376 27.979 40.9375 28.193C40.9374 28.407 40.8523 28.6122 40.701 28.7635C40.5496 28.9147 40.3443 28.9997 40.1303 28.9996C39.9163 28.9995 39.7111 28.9144 39.5598 28.7631L35.256 24.4593C33.9694 25.4558 32.3516 25.9247 30.7315 25.7707C29.1115 25.6167 27.611 24.8513 26.5352 23.6302C25.4595 22.4091 24.8893 20.8241 24.9407 19.1975C24.9921 17.571 25.6612 16.0251 26.8119 14.8744C27.9626 13.7237 29.5085 13.0546 31.135 13.0032C32.7616 12.9518 34.3466 13.522 35.5677 14.5977C36.7888 15.6735 37.5542 17.174 37.7082 18.794C37.8622 20.4141 37.3933 22.0319 36.3968 23.3185H36.3976ZM31.3378 24.1993C32.6108 24.1993 33.8316 23.6936 34.7318 22.7934C35.6319 21.8933 36.1376 20.6725 36.1376 19.3995C36.1376 18.1265 35.6319 16.9057 34.7318 16.0055C33.8316 15.1054 32.6108 14.5997 31.3378 14.5997C30.0648 14.5997 28.844 15.1054 27.9438 16.0055C27.0437 16.9057 26.538 18.1265 26.538 19.3995C26.538 20.6725 27.0437 21.8933 27.9438 22.7934C28.844 23.6936 30.0648 24.1993 31.3378 24.1993Z" fill="#64748B"/>
</g>
</g>
</g>
</g>
<rect x="0.25" y="0.25" width="221.5" height="40.5" rx="20.25" stroke="#94A3B8" stroke-width="0.5"/>
<defs>
<clipPath id="clip0_6220_11322">
<rect width="222" height="41" rx="20.5" fill="white"/>
</clipPath>
<clipPath id="clip1_6220_11322">
<rect width="191" height="25" fill="white" transform="translate(0 13)"/>
</clipPath>
<clipPath id="clip2_6220_11322">
<rect width="15.9645" height="15.9998" fill="white" transform="translate(24.9375 13)"/>
</clipPath>
<clipPath id="clip3_6220_11322">
<rect width="15.9645" height="15.9998" fill="white" transform="translate(24.9375 13)"/>
</clipPath>
<clipPath id="clip4_6220_11322">
<rect width="15.9645" height="15.9998" fill="white" transform="translate(24.9375 13)"/>
</clipPath>
</defs>
</svg>
