<svg width="15" height="15" viewBox="0 0 15 15" fill="none" xmlns="http://www.w3.org/2000/svg">
<g clip-path="url(#clip0_6220_11353)">
<path d="M15 0H0V15H15V0Z" fill="white" fill-opacity="0.01"/>
<path d="M10.625 3.75V6.25V6.5625C9.70153 6.5625 8.87163 6.96306 8.29953 7.59994C7.80244 8.15331 7.5 8.88509 7.5 9.6875C7.5 9.86841 7.51538 10.0457 7.54488 10.2182C7.70559 11.1577 8.28572 11.954 9.08566 12.4077C8.25363 12.6593 7.14925 12.8125 5.9375 12.8125C3.34866 12.8125 1.25 12.1129 1.25 11.25V8.75V6.25V3.75" stroke="#788599" stroke-linecap="round" stroke-linejoin="round"/>
<path d="M10.625 3.75C10.625 4.61294 8.52634 5.3125 5.9375 5.3125C3.34866 5.3125 1.25 4.61294 1.25 3.75C1.25 2.88706 3.34866 2.1875 5.9375 2.1875C8.52634 2.1875 10.625 2.88706 10.625 3.75Z" stroke="#788599" stroke-linecap="round" stroke-linejoin="round"/>
<path d="M1.25 8.75C1.25 9.61294 3.34866 10.3125 5.9375 10.3125C6.50219 10.3125 7.04353 10.2792 7.54488 10.2182" stroke="#788599" stroke-linecap="round" stroke-linejoin="round"/>
<path d="M1.25 6.25C1.25 7.11294 3.34866 7.8125 5.9375 7.8125C6.79884 7.8125 7.60594 7.73506 8.29953 7.59994" stroke="#788599" stroke-linecap="round" stroke-linejoin="round"/>
<path d="M13.75 9.6875C13.75 11.4134 12.3509 12.8125 10.625 12.8125C10.0653 12.8125 9.54003 12.6654 9.08566 12.4077C8.28572 11.954 7.70559 11.1577 7.54488 10.2182C7.51538 10.0457 7.5 9.86841 7.5 9.6875C7.5 8.88509 7.80244 8.15331 8.29953 7.59994C8.87163 6.96306 9.70153 6.5625 10.625 6.5625C12.3509 6.5625 13.75 7.96163 13.75 9.6875Z" stroke="#788599" stroke-linecap="round" stroke-linejoin="round"/>
</g>
<defs>
<clipPath id="clip0_6220_11353">
<rect width="15" height="15" fill="white"/>
</clipPath>
</defs>
</svg>
