<svg width="14" height="14" viewBox="0 0 14 14" fill="none" xmlns="http://www.w3.org/2000/svg">
<path d="M10.2109 8.16699V9.04199" stroke="#788599" stroke-width="1.16667" stroke-linecap="round" stroke-linejoin="round"/>
<path d="M10.2109 11.375V12.25" stroke="#788599" stroke-width="1.16667" stroke-linecap="round" stroke-linejoin="round"/>
<path d="M11.6187 8.75L11 9.36871" stroke="#788599" stroke-width="1.16667" stroke-linecap="round" stroke-linejoin="round"/>
<path d="M9.28277 11.083L8.66406 11.7017" stroke="#788599" stroke-width="1.16667" stroke-linecap="round" stroke-linejoin="round"/>
<path d="M8.75 8.75L9.36871 9.36871" stroke="#788599" stroke-width="1.16667" stroke-linecap="round" stroke-linejoin="round"/>
<path d="M11.0859 11.083L11.7046 11.7017" stroke="#788599" stroke-width="1.16667" stroke-linecap="round" stroke-linejoin="round"/>
<path d="M8.16406 10.208H8.60156H9.03906" stroke="#788599" stroke-width="1.16667" stroke-linecap="round" stroke-linejoin="round"/>
<path d="M12.5443 6.70833V4.08333C12.5443 3.76116 12.2831 3.5 11.9609 3.5H7.0026L5.54427 1.75H2.04427C1.7221 1.75 1.46094 2.01117 1.46094 2.33333V11.6667C1.46094 11.9888 1.7221 12.25 2.04427 12.25H6.41927" stroke="#788599" stroke-width="1.16667" stroke-linecap="round" stroke-linejoin="round"/>
<path d="M10.2057 11.3753C10.8501 11.3753 11.3724 10.853 11.3724 10.2087C11.3724 9.56433 10.8501 9.04199 10.2057 9.04199C9.5614 9.04199 9.03906 9.56433 9.03906 10.2087C9.03906 10.853 9.5614 11.3753 10.2057 11.3753Z" stroke="#788599" stroke-width="1.16667"/>
<path d="M11.375 10.208H11.8125H12.25" stroke="#788599" stroke-width="1.16667" stroke-linecap="round" stroke-linejoin="round"/>
</svg>
