<svg width="15" height="15" viewBox="0 0 15 15" fill="none" xmlns="http://www.w3.org/2000/svg">
<path d="M0.0210652 5.08333C0.341554 4.09639 0.869512 3.19044 1.56614 2.42268C1.68394 2.29285 1.86875 2.24658 2.03421 2.30549L3.699 2.89819C4.15035 3.05879 4.64699 2.82466 4.80828 2.37525C4.82414 2.33106 4.83636 2.28566 4.8448 2.23957L5.16197 0.506137C5.1935 0.333786 5.32644 0.197456 5.49853 0.160983C6.00205 0.0542681 6.51831 0 7.04134 0C7.56406 0 8.08001 0.054202 8.58324 0.160789C8.75528 0.197228 8.88821 0.333473 8.91982 0.505757L9.23787 2.2395C9.32386 2.70899 9.77582 3.02019 10.2473 2.93456C10.2937 2.92615 10.3393 2.91398 10.3836 2.89821L12.0485 2.30549C12.2139 2.24658 12.3988 2.29285 12.5166 2.42268C13.2132 3.19044 13.7411 4.09639 14.0616 5.08333C14.1157 5.24983 14.0636 5.43236 13.9296 5.54561L12.5802 6.68633C12.2149 6.99523 12.1702 7.54055 12.4804 7.90433C12.5109 7.9401 12.5443 7.97334 12.5802 8.0037L13.9296 9.14443C14.0636 9.25769 14.1157 9.44022 14.0616 9.60672C13.7411 10.5937 13.2132 11.4996 12.5166 12.2674C12.3988 12.3972 12.2139 12.4435 12.0485 12.3846L10.3837 11.7919C9.93234 11.6313 9.4357 11.8654 9.27441 12.3148C9.25855 12.359 9.24633 12.4044 9.23785 12.4507L8.91982 14.1843C8.88821 14.3566 8.75528 14.4928 8.58324 14.5293C8.08001 14.6358 7.56406 14.69 7.04134 14.69C6.51831 14.69 6.00205 14.6358 5.49853 14.5291C5.32644 14.4926 5.1935 14.3563 5.16197 14.1839L4.84482 12.4506C4.75883 11.9811 4.30687 11.6699 3.83535 11.7555C3.78898 11.7639 3.74338 11.7761 3.69907 11.7918L2.03421 12.3846C1.86875 12.4435 1.68394 12.3972 1.56614 12.2674C0.869512 11.4996 0.341554 10.5937 0.0210652 9.60672C-0.0330026 9.44022 0.0191315 9.25769 0.153102 9.14443L1.50247 8.00372C1.86783 7.69482 1.91252 7.1495 1.60229 6.78571C1.57178 6.74994 1.5384 6.7167 1.50249 6.68635L0.153102 5.54561C0.0191315 5.43236 -0.0330026 5.24983 0.0210652 5.08333ZM4.89818 7.34495C4.89818 8.5285 5.85764 9.48797 7.04119 9.48797C8.22475 9.48797 9.18421 8.5285 9.18421 7.34495C9.18421 6.16139 8.22475 5.20193 7.04119 5.20193C5.85764 5.20193 4.89818 6.16139 4.89818 7.34495Z" fill="#64748B"/>
</svg>
