<svg width="24" height="24" viewBox="0 0 24 24" fill="none" xmlns="http://www.w3.org/2000/svg">
<path d="M14.2455 7.99503C15.1305 7.99503 15.8481 7.24994 15.8481 6.33083C15.8481 5.41171 15.1305 4.66662 14.2455 4.66662C13.3604 4.66662 12.6429 5.41171 12.6429 6.33083C12.6429 7.24994 13.3604 7.99503 14.2455 7.99503ZM4.61816 0C2.31356 0 0.445312 1.94008 0.445312 4.33329V16.3332C0.445312 18.7264 2.31356 20.6665 4.61816 20.6665H16.1738C18.4784 20.6665 20.3466 18.7264 20.3466 16.3332V4.33329C20.3466 1.94008 18.4784 0 16.1738 0H4.61816ZM2.37124 4.33329C2.37124 3.04464 3.37722 1.99998 4.61816 1.99998H16.1738C17.4147 1.99998 18.4207 3.04464 18.4207 4.33329V16.3332C18.4207 16.6414 18.3631 16.9356 18.2586 17.205L12.369 11.4836C11.2584 10.4047 9.53251 10.4047 8.42191 11.4836L2.53305 17.2043C2.42869 16.9351 2.37124 16.6411 2.37124 16.3332V4.33329ZM11.0533 12.9441L16.8374 18.563C16.6277 18.6303 16.4048 18.6665 16.1738 18.6665H4.61816C4.38686 18.6665 4.16373 18.6302 3.95375 18.5628L9.73761 12.9441C10.1078 12.5845 10.6831 12.5845 11.0533 12.9441ZM7.82798 24C6.35056 24 5.05247 23.2027 4.31097 21.9998H7.79523L7.82798 22H16.8157C19.4748 22 21.6305 19.7615 21.6305 17.0001V4.01473C22.7887 4.78477 23.5564 6.1327 23.5564 7.66682V17.0001C23.5564 20.866 20.5385 24 16.8157 24H7.82798Z" fill="#6E7389"/>
</svg>
