<svg width="14" height="14" viewBox="0 0 14 14" fill="none" xmlns="http://www.w3.org/2000/svg">
<path d="M14 2.5C14 3.88071 12.8807 5 11.5 5C10.7014 5 9.99034 4.62559 9.53265 4.04275L4.91508 6.35154C4.97047 6.55834 5 6.77572 5 7C5 7.22431 4.97046 7.44173 4.91505 7.64856L9.53258 9.95734C9.99027 9.37444 10.7014 9 11.5 9C12.8807 9 14 10.1193 14 11.5C14 12.8807 12.8807 14 11.5 14C10.1193 14 9 12.8807 9 11.5C9 11.2757 9.02953 11.0583 9.08492 10.8515L4.46735 8.54275C4.00966 9.12559 3.29855 9.5 2.5 9.5C1.11929 9.5 0 8.38071 0 7C0 5.61929 1.11929 4.5 2.5 4.5C3.29859 4.5 4.00973 4.87444 4.46742 5.45734L9.08495 3.14856C9.02954 2.94173 9 2.72431 9 2.5C9 1.11929 10.1193 0 11.5 0C12.8807 0 14 1.11929 14 2.5Z" fill="#64748B"/>
</svg>
