<svg width="13" height="11" viewBox="0 0 13 11" fill="none" xmlns="http://www.w3.org/2000/svg">
<path d="M8.58683 10V9C8.58683 8.46957 8.35845 7.96086 7.95193 7.58579C7.54542 7.21071 6.99406 7 6.41916 7H3.16766C2.59276 7 2.04141 7.21071 1.63489 7.58579C1.22838 7.96086 1 8.46957 1 9V10" stroke="#64748B" stroke-width="1.2" stroke-linecap="round" stroke-linejoin="round"/>
<path d="M4.79267 5C5.98983 5 6.96033 4.10457 6.96033 3C6.96033 1.89543 5.98983 1 4.79267 1C3.5955 1 2.625 1.89543 2.625 3C2.625 4.10457 3.5955 5 4.79267 5Z" stroke="#64748B" stroke-width="1.2" stroke-linecap="round" stroke-linejoin="round"/>
<path d="M11.8367 9.9975V8.9975C11.8363 8.55436 11.6765 8.12389 11.3822 7.77366C11.088 7.42343 10.676 7.17328 10.2109 7.0625" stroke="#64748B" stroke-width="1.2" stroke-linecap="round" stroke-linejoin="round"/>
<path d="M8.58594 1.0625C9.05221 1.17265 9.46549 1.42285 9.76062 1.77366C10.0557 2.12446 10.2159 2.55591 10.2159 3C10.2159 3.44409 10.0557 3.87554 9.76062 4.22634C9.46549 4.57715 9.05221 4.82735 8.58594 4.9375" stroke="#64748B" stroke-width="1.2" stroke-linecap="round" stroke-linejoin="round"/>
</svg>
