<svg width="15" height="10" viewBox="0 0 15 10" fill="none" xmlns="http://www.w3.org/2000/svg">
<path d="M1.45982 5.44887L1.45869 5.45287C1.37642 5.76203 1.05907 5.94665 0.749768 5.86464C0.250014 5.73219 0.337998 5.15572 0.337998 5.15572L0.358479 5.08454C0.358479 5.08454 0.388744 4.98703 0.413125 4.91624C0.461848 4.77478 0.536358 4.57703 0.64228 4.34171C0.85356 3.87233 1.19314 3.24606 1.70832 2.61786C2.74892 1.34894 4.49825 0.0869141 7.27513 0.0869141C10.052 0.0869141 11.8013 1.34894 12.8419 2.61786C13.3571 3.24606 13.6967 3.87233 13.908 4.34171C14.0139 4.57703 14.0884 4.77478 14.1371 4.91624C14.1615 4.98703 14.1795 5.0439 14.1918 5.08454C14.1979 5.10487 14.2027 5.12115 14.206 5.13311L14.2101 5.14776L14.2114 5.15259L14.2119 5.15437L14.2123 5.15572C14.2943 5.46519 14.11 5.78258 13.8005 5.86464C13.4915 5.94657 13.1746 5.7629 13.092 5.45429L13.0916 5.45287L13.0904 5.44887L13.0819 5.41988C13.0737 5.39259 13.0602 5.34982 13.0409 5.2938C13.0023 5.18164 12.9405 5.01707 12.8507 4.8176C12.6706 4.41742 12.3811 3.88427 11.9454 3.35306C11.0844 2.30314 9.64536 1.24633 7.27513 1.24633C4.9049 1.24633 3.46584 2.30314 2.60482 3.35306C2.16919 3.88427 1.87966 4.41742 1.69953 4.8176C1.60974 5.01707 1.54797 5.18164 1.50934 5.2938C1.49005 5.34982 1.47659 5.39259 1.46834 5.41988L1.45982 5.44887ZM7.27523 3.56516C5.67441 3.56516 4.37668 4.86288 4.37668 6.4637C4.37668 8.06452 5.67441 9.36225 7.27523 9.36225C8.87605 9.36225 10.1738 8.06452 10.1738 6.4637C10.1738 4.86288 8.87605 3.56516 7.27523 3.56516ZM5.5361 6.4637C5.5361 5.50321 6.31473 4.72458 7.27523 4.72458C8.23572 4.72458 9.01435 5.50321 9.01435 6.4637C9.01435 7.4242 8.23572 8.20283 7.27523 8.20283C6.31473 8.20283 5.5361 7.4242 5.5361 6.4637Z" fill="#64748B"/>
</svg>
