<svg width="26" height="26" viewBox="0 0 26 26" fill="none" xmlns="http://www.w3.org/2000/svg">
<g clip-path="url(#clip0_5912_9846)">
<path d="M26 0H0V26H26V0Z" fill="white" fill-opacity="0.01"/>
<path d="M12.9974 23.8337C18.9805 23.8337 23.8307 18.9834 23.8307 13.0003C23.8307 7.01724 18.9805 2.16699 12.9974 2.16699C7.01431 2.16699 2.16406 7.01724 2.16406 13.0003C2.16406 18.9834 7.01431 23.8337 12.9974 23.8337Z" stroke="#6E7389" stroke-width="1.61379"/>
<path d="M2.16406 11.2886C3.79711 10.5175 5.00492 10.4101 5.78749 10.9663C6.96139 11.8008 7.10856 15.2014 9.77854 13.5761C12.4485 11.9509 8.63519 11.2886 9.46302 8.93426C10.2909 6.5799 13.0019 8.40873 13.2714 5.82986C13.451 4.11057 11.3945 3.45272 7.10168 3.8563" stroke="#6E7389" stroke-width="1.61379"/>
<path d="M19.4975 4.33301C16.4022 7.03517 15.3211 8.66694 16.2543 9.22821C17.654 10.0702 18.2479 8.8848 19.956 9.22821C21.6641 9.57168 21.2943 11.8869 20.3959 11.8869C19.4975 11.8869 14.8445 11.2944 15.0789 14.0099C15.3132 16.7253 18.1119 17.1273 18.1119 18.6444C18.1119 19.6558 17.4927 21.2038 16.2543 23.2882" stroke="#6E7389" stroke-width="1.61379" stroke-linecap="round"/>
<path d="M3.30469 17.8349C3.79841 17.6196 4.16955 17.4617 4.41808 17.3613C6.50192 16.5194 8.04817 16.321 9.05669 16.766C10.8401 17.553 10.1545 19.1423 10.7131 19.7279C11.2717 20.3134 12.6666 20.1431 12.6666 21.257C12.6666 21.9996 12.4171 22.8385 11.9183 23.7736" stroke="#6E7389" stroke-width="1.61379" stroke-linecap="round"/>
</g>
<defs>
<clipPath id="clip0_5912_9846">
<rect width="26" height="26" fill="white"/>
</clipPath>
</defs>
</svg>
